<svg width="13" height="16" viewBox="0 0 13 16" fill="none" xmlns="http://www.w3.org/2000/svg">
<path d="M11.2031 2.375H8.625V1.90625C8.625 1.13085 7.99415 0.5 7.21875 0.5H5.34375C4.56835 0.5 3.9375 1.13085 3.9375 1.90625V2.375H1.35938C0.713203 2.375 0.1875 2.9007 0.1875 3.54688V5.1875C0.1875 5.44637 0.397383 5.65625 0.65625 5.65625H0.912422L1.31739 14.1606C1.35316 14.9117 1.97016 15.5 2.72203 15.5H9.84047C10.5924 15.5 11.2094 14.9117 11.2451 14.1606L11.6501 5.65625H11.9062C12.1651 5.65625 12.375 5.44637 12.375 5.1875V3.54688C12.375 2.9007 11.8493 2.375 11.2031 2.375ZM4.875 1.90625C4.875 1.64779 5.08529 1.4375 5.34375 1.4375H7.21875C7.47721 1.4375 7.6875 1.64779 7.6875 1.90625V2.375H4.875V1.90625ZM1.125 3.54688C1.125 3.41765 1.23015 3.3125 1.35938 3.3125H11.2031C11.3324 3.3125 11.4375 3.41765 11.4375 3.54688V4.71875C11.293 4.71875 1.72362 4.71875 1.125 4.71875V3.54688ZM10.3087 14.116C10.2967 14.3664 10.0911 14.5625 9.84047 14.5625H2.72203C2.4714 14.5625 2.26573 14.3664 2.25384 14.116L1.85098 5.65625H10.7115L10.3087 14.116Z" fill="#E75147"/>
<path d="M6.28125 13.625C6.54012 13.625 6.75 13.4151 6.75 13.1563V7.0625C6.75 6.80363 6.54012 6.59375 6.28125 6.59375C6.02238 6.59375 5.8125 6.80363 5.8125 7.0625V13.1563C5.8125 13.4151 6.02235 13.625 6.28125 13.625Z" fill="#E75147"/>
<path d="M8.625 13.625C8.88387 13.625 9.09375 13.4151 9.09375 13.1563V7.0625C9.09375 6.80363 8.88387 6.59375 8.625 6.59375C8.36613 6.59375 8.15625 6.80363 8.15625 7.0625V13.1563C8.15625 13.4151 8.3661 13.625 8.625 13.625Z" fill="#E75147"/>
<path d="M3.9375 13.625C4.19637 13.625 4.40625 13.4151 4.40625 13.1563V7.0625C4.40625 6.80363 4.19637 6.59375 3.9375 6.59375C3.67863 6.59375 3.46875 6.80363 3.46875 7.0625V13.1563C3.46875 13.4151 3.6786 13.625 3.9375 13.625Z" fill="#E75147"/>
</svg>
