<svg width="20" height="14" viewBox="0 0 20 14" fill="none" xmlns="http://www.w3.org/2000/svg">
<path d="M10 10C11.6569 10 13 8.65685 13 7C13 5.34315 11.6569 4 10 4C8.34315 4 7 5.34315 7 7C7 8.65685 8.34315 10 10 10Z" stroke="#6D6E71"/>
<path d="M18.1885 5.934C18.5765 6.406 18.7705 6.641 18.7705 7C18.7705 7.359 18.5765 7.594 18.1885 8.066C16.7685 9.79 13.6365 13 10.0005 13C6.36447 13 3.23247 9.79 1.81247 8.066C1.42447 7.594 1.23047 7.359 1.23047 7C1.23047 6.641 1.42447 6.406 1.81247 5.934C3.23247 4.21 6.36447 1 10.0005 1C13.6365 1 16.7685 4.21 18.1885 5.934Z" stroke="#6D6E71"/>
</svg>
