<svg width="16" height="16" viewBox="0 0 16 16" fill="none" xmlns="http://www.w3.org/2000/svg">
<path d="M15.2196 2.32516L13.8603 0.965786C13.2393 0.344723 12.2288 0.344753 11.6078 0.965786C11.023 1.55058 2.09171 10.4826 1.49485 11.0795C1.43128 11.143 1.38868 11.2275 1.3735 11.3102L0.693874 14.9805C0.667537 15.1228 0.712888 15.2689 0.815222 15.3713C0.917673 15.4737 1.06386 15.519 1.20598 15.4926L4.87596 14.8129C4.96078 14.7971 5.04416 14.7541 5.10668 14.6915L15.2196 4.57788C15.8421 3.95538 15.8422 2.94775 15.2196 2.32516ZM1.67444 14.512L2.08556 12.2917L3.89452 14.1008L1.67444 14.512ZM4.79595 13.7593L2.42704 11.3902L11.0758 2.74085L13.4447 5.10994L4.79595 13.7593ZM14.5981 3.95641L14.0661 4.48846L11.6972 2.11938L12.2292 1.58732C12.5075 1.30894 12.9604 1.30891 13.2389 1.58732L14.5981 2.94669C14.8772 3.22574 14.8772 3.67732 14.5981 3.95641Z" fill="#6D6E71"/>
</svg>
